<svg width="18" height="18" viewBox="0 0 18 18" fill="none" xmlns="http://www.w3.org/2000/svg">
<path d="M8.1665 13.1667H9.83317V8.16672H8.1665V13.1667ZM8.99984 6.50005C9.23595 6.50005 9.434 6.42005 9.594 6.26005C9.754 6.10005 9.83373 5.90227 9.83317 5.66672C9.83262 5.43116 9.75262 5.23338 9.59317 5.07338C9.43373 4.91338 9.23595 4.83338 8.99984 4.83338C8.76373 4.83338 8.56595 4.91338 8.4065 5.07338C8.24706 5.23338 8.16706 5.43116 8.1665 5.66672C8.16595 5.90227 8.24595 6.10033 8.4065 6.26088C8.56706 6.42144 8.76484 6.50116 8.99984 6.50005ZM8.99984 17.3334C7.84706 17.3334 6.76373 17.1145 5.74984 16.6767C4.73595 16.2389 3.854 15.6453 3.10401 14.8959C2.354 14.1464 1.76039 13.2645 1.32317 12.2501C0.885949 11.2356 0.667061 10.1523 0.666505 9.00005C0.665949 7.84783 0.884838 6.7645 1.32317 5.75005C1.76151 4.73561 2.35512 3.85366 3.10401 3.10422C3.85289 2.35477 4.73484 1.76116 5.74984 1.32338C6.76484 0.885607 7.84817 0.666718 8.99984 0.666718C10.1515 0.666718 11.2348 0.885607 12.2498 1.32338C13.2648 1.76116 14.1468 2.35477 14.8957 3.10422C15.6446 3.85366 16.2384 4.73561 16.6773 5.75005C17.1162 6.7645 17.3348 7.84783 17.3332 9.00005C17.3315 10.1523 17.1126 11.2356 16.6765 12.2501C16.2404 13.2645 15.6468 14.1464 14.8957 14.8959C14.1446 15.6453 13.2626 16.2392 12.2498 16.6776C11.2371 17.1159 10.1537 17.3345 8.99984 17.3334ZM8.99984 15.6667C10.8609 15.6667 12.4373 15.0209 13.729 13.7292C15.0207 12.4376 15.6665 10.8612 15.6665 9.00005C15.6665 7.13894 15.0207 5.56255 13.729 4.27088C12.4373 2.97922 10.8609 2.33338 8.99984 2.33338C7.13873 2.33338 5.56234 2.97922 4.27067 4.27088C2.979 5.56255 2.33317 7.13894 2.33317 9.00005C2.33317 10.8612 2.979 12.4376 4.27067 13.7292C5.56234 15.0209 7.13873 15.6667 8.99984 15.6667Z" fill="#525252"/>
</svg>
