<svg width="13" height="12" viewBox="0 0 13 12" fill="none" xmlns="http://www.w3.org/2000/svg">
<path d="M11.4165 1.83335H9.56734L8.49984 0.666687H4.99984L3.93234 1.83335H2.08317C1.77375 1.83335 1.47701 1.95627 1.25821 2.17506C1.03942 2.39385 0.916504 2.6906 0.916504 3.00002V10C0.916504 10.3094 1.03942 10.6062 1.25821 10.825C1.47701 11.0438 1.77375 11.1667 2.08317 11.1667H11.4165C11.7259 11.1667 12.0227 11.0438 12.2415 10.825C12.4603 10.6062 12.5832 10.3094 12.5832 10V3.00002C12.5832 2.6906 12.4603 2.39385 12.2415 2.17506C12.0227 1.95627 11.7259 1.83335 11.4165 1.83335ZM11.4165 10H2.08317V3.00002H4.44567L5.51317 1.83335H7.9865L9.054 3.00002H11.4165V10ZM6.74984 3.58335C5.97629 3.58335 5.23442 3.89064 4.68744 4.43763C4.14046 4.98461 3.83317 5.72647 3.83317 6.50002C3.83317 7.27357 4.14046 8.01543 4.68744 8.56241C5.23442 9.1094 5.97629 9.41669 6.74984 9.41669C7.52339 9.41669 8.26525 9.1094 8.81223 8.56241C9.35921 8.01543 9.6665 7.27357 9.6665 6.50002C9.6665 5.72647 9.35921 4.98461 8.81223 4.43763C8.26525 3.89064 7.52339 3.58335 6.74984 3.58335ZM6.74984 8.25002C6.28571 8.25002 5.84059 8.06565 5.5124 7.73746C5.18421 7.40927 4.99984 6.96415 4.99984 6.50002C4.99984 6.03589 5.18421 5.59077 5.5124 5.26258C5.84059 4.93439 6.28571 4.75002 6.74984 4.75002C7.21397 4.75002 7.65909 4.93439 7.98727 5.26258C8.31546 5.59077 8.49984 6.03589 8.49984 6.50002C8.49984 6.96415 8.31546 7.40927 7.98727 7.73746C7.65909 8.06565 7.21397 8.25002 6.74984 8.25002Z" fill="white"/>
</svg>
