
<svg width="11" height="13" viewBox="0 0 11 13" fill="none" xmlns="http://www.w3.org/2000/svg">
<path d="M0.583496 11.75H9.91683M1.55533 7.19243C1.3066 7.44171 1.16689 7.77945 1.16683 8.1316V10H3.04691C3.39925 10 3.737 9.86001 3.98608 9.61035L9.52775 4.06576C9.77638 3.81644 9.91601 3.4787 9.91601 3.1266C9.91601 2.77449 9.77638 2.43675 9.52775 2.18743L8.98058 1.6391C8.85718 1.51563 8.71066 1.41771 8.54939 1.35091C8.38812 1.28412 8.21526 1.24976 8.04071 1.24982C7.86615 1.24987 7.69332 1.28433 7.53209 1.35123C7.37086 1.41812 7.2244 1.51614 7.10108 1.63968L1.55533 7.19243Z" stroke="white" stroke-linecap="round" stroke-linejoin="round"/>
</svg>
