<svg width="18" height="18" viewBox="0 0 18 18" fill="none" xmlns="http://www.w3.org/2000/svg">
<path d="M9.9375 13.0626C9.9375 13.248 9.88252 13.4292 9.77951 13.5834C9.67649 13.7376 9.53007 13.8577 9.35877 13.9287C9.18746 13.9997 8.99896 14.0182 8.81711 13.982C8.63525 13.9459 8.4682 13.8566 8.33709 13.7255C8.20598 13.5944 8.11669 13.4273 8.08052 13.2455C8.04434 13.0636 8.06291 12.8751 8.13387 12.7038C8.20482 12.5325 8.32499 12.3861 8.47916 12.2831C8.63333 12.18 8.81458 12.1251 9 12.1251C9.24864 12.1251 9.4871 12.2238 9.66292 12.3996C9.83873 12.5755 9.9375 12.8139 9.9375 13.0626ZM9 4.62506C7.27657 4.62506 5.875 5.88678 5.875 7.43756V7.75006C5.875 7.91582 5.94085 8.07479 6.05806 8.192C6.17527 8.30921 6.33424 8.37506 6.5 8.37506C6.66576 8.37506 6.82474 8.30921 6.94195 8.192C7.05916 8.07479 7.125 7.91582 7.125 7.75006V7.43756C7.125 6.57819 7.96641 5.87506 9 5.87506C10.0336 5.87506 10.875 6.57819 10.875 7.43756C10.875 8.29694 10.0336 9.00006 9 9.00006C8.83424 9.00006 8.67527 9.06591 8.55806 9.18312C8.44085 9.30033 8.375 9.4593 8.375 9.62506V10.2501C8.375 10.4158 8.44085 10.5748 8.55806 10.692C8.67527 10.8092 8.83424 10.8751 9 10.8751C9.16576 10.8751 9.32474 10.8092 9.44195 10.692C9.55916 10.5748 9.625 10.4158 9.625 10.2501V10.1938C11.05 9.93209 12.125 8.79537 12.125 7.43756C12.125 5.88678 10.7234 4.62506 9 4.62506ZM17.125 9.00006C17.125 10.607 16.6485 12.1779 15.7557 13.5141C14.8629 14.8502 13.594 15.8916 12.1093 16.5066C10.6247 17.1215 8.99099 17.2824 7.4149 16.9689C5.8388 16.6554 4.39106 15.8816 3.25476 14.7453C2.11846 13.609 1.34463 12.1613 1.03112 10.5852C0.717618 9.00907 0.87852 7.37541 1.49348 5.89076C2.10844 4.40611 3.14985 3.13716 4.486 2.24437C5.82214 1.35158 7.39303 0.875061 9 0.875061C11.1542 0.877336 13.2195 1.73409 14.7427 3.25733C16.266 4.78057 17.1227 6.84588 17.125 9.00006ZM15.875 9.00006C15.875 7.64031 15.4718 6.3111 14.7164 5.18052C13.9609 4.04993 12.8872 3.16874 11.631 2.64839C10.3747 2.12804 8.99238 1.99189 7.65876 2.25716C6.32514 2.52244 5.10013 3.17722 4.13864 4.1387C3.17716 5.10019 2.52238 6.3252 2.2571 7.65882C1.99183 8.99243 2.12798 10.3748 2.64833 11.631C3.16868 12.8873 4.04987 13.961 5.18046 14.7164C6.31105 15.4718 7.64026 15.8751 9 15.8751C10.8227 15.873 12.5702 15.148 13.8591 13.8591C15.1479 12.5703 15.8729 10.8228 15.875 9.00006Z" fill="#525252"/>
</svg>
