<svg width="20" height="20" viewBox="0 0 20 20" fill="none" xmlns="http://www.w3.org/2000/svg">
<path d="M14.1668 9.00423C14.1668 8.71589 14.1668 8.57173 14.2102 8.44339C14.336 8.07006 14.6685 7.92589 15.0018 7.77423C15.3752 7.60339 15.5618 7.51839 15.7477 7.50339C15.9577 7.48673 16.1685 7.53173 16.3485 7.63256C16.5868 7.76589 16.7535 8.02089 16.9235 8.22756C17.7093 9.18256 18.1027 9.66006 18.246 10.1859C18.3627 10.6109 18.3627 11.0559 18.246 11.4801C18.0368 12.2484 17.3743 12.8917 16.8835 13.4884C16.6327 13.7926 16.5068 13.9451 16.3485 14.0342C16.1654 14.1358 15.9563 14.1807 15.7477 14.1634C15.5618 14.1484 15.3752 14.0634 15.001 13.8926C14.6677 13.7409 14.336 13.5967 14.2102 13.2234C14.1668 13.0951 14.1668 12.9509 14.1668 12.6626V9.00423ZM5.8335 9.00423C5.8335 8.64089 5.8235 8.31506 5.53017 8.06006C5.4235 7.96756 5.28183 7.90339 4.99933 7.77423C4.62517 7.60423 4.4385 7.51839 4.25267 7.50339C3.69683 7.45839 3.39767 7.83839 3.07767 8.22839C2.291 9.18256 1.89767 9.66006 1.7535 10.1867C1.6375 10.6103 1.6375 11.0573 1.7535 11.4809C1.9635 12.2484 2.62683 12.8926 3.11683 13.4884C3.426 13.8634 3.72183 14.2059 4.25267 14.1634C4.4385 14.1484 4.62517 14.0634 4.99933 13.8926C5.28267 13.7642 5.4235 13.6992 5.53017 13.6067C5.8235 13.3517 5.8335 13.0259 5.8335 12.6634V9.00423Z" stroke="#525252" stroke-width="1.25" stroke-linecap="round" stroke-linejoin="round"/>
<path d="M4.16699 7.50006C4.16699 4.73839 6.77866 2.50006 10.0003 2.50006C13.222 2.50006 15.8337 4.73839 15.8337 7.50006M15.8337 14.1667V14.8334C15.8337 16.3059 14.342 17.5001 12.5003 17.5001H10.8337" stroke="#525252" stroke-width="1.25" stroke-linecap="round" stroke-linejoin="round"/>
</svg>
