<svg width="20" height="20" viewBox="0 0 20 20" fill="none" xmlns="http://www.w3.org/2000/svg">
<g clip-path="url(#clip0_258_2018)">
<path d="M3.88894 3.33337H12.7778V8.77782H13.8889V3.33337C13.8889 3.03869 13.7719 2.75607 13.5635 2.5477C13.3551 2.33932 13.0725 2.22226 12.7778 2.22226H3.88894C3.59426 2.22226 3.31164 2.33932 3.10327 2.5477C2.8949 2.75607 2.77783 3.03869 2.77783 3.33337V16.6667C2.77783 16.9614 2.8949 17.244 3.10327 17.4524C3.31164 17.6608 3.59426 17.7778 3.88894 17.7778H12.7778C13.0725 17.7778 13.3551 17.6608 13.5635 17.4524C13.7719 17.244 13.8889 16.9614 13.8889 16.6667H3.88894V3.33337Z" fill="#525252"/>
<path d="M15.6446 9.60002C15.5383 9.509 15.4016 9.46144 15.2618 9.46684C15.122 9.47225 14.9893 9.53021 14.8904 9.62915C14.7915 9.72809 14.7335 9.86072 14.7281 10.0005C14.7227 10.1404 14.7702 10.2771 14.8613 10.3834L16.739 12.2222H8.68349C8.53614 12.2222 8.39484 12.2808 8.29065 12.385C8.18646 12.4891 8.12793 12.6305 8.12793 12.7778C8.12793 12.9251 8.18646 13.0664 8.29065 13.1706C8.39484 13.2748 8.53614 13.3334 8.68349 13.3334H16.739L14.8613 15.2556C14.8031 15.3054 14.7559 15.3667 14.7225 15.4356C14.6892 15.5045 14.6704 15.5796 14.6675 15.6561C14.6645 15.7326 14.6774 15.8089 14.7054 15.8802C14.7333 15.9515 14.7756 16.0162 14.8298 16.0704C14.8839 16.1245 14.9487 16.1669 15.02 16.1948C15.0913 16.2227 15.1676 16.2356 15.2441 16.2327C15.3206 16.2297 15.3957 16.211 15.4646 16.1776C15.5335 16.1443 15.5948 16.0971 15.6446 16.0389L18.889 12.8167L15.6446 9.60002Z" fill="#525252"/>
</g>
<defs>
<clipPath id="clip0_258_2018">
<rect width="20" height="20" fill="white"/>
</clipPath>
</defs>
</svg>
