<svg width="20" height="20" viewBox="0 0 20 20" fill="none" xmlns="http://www.w3.org/2000/svg">
<path d="M8.75 10.3688L7.13125 8.75006L6.25 9.63131L8.75 12.1313L13.75 7.13131L12.8688 6.25006L8.75 10.3688Z" fill="#525252"/>
<path d="M10 18.7501L6.14001 16.6919C5.0395 16.1066 4.11919 15.2326 3.4779 14.1637C2.83661 13.0949 2.49854 11.8715 2.5 10.6251V2.50006C2.5 2.16854 2.6317 1.8506 2.86612 1.61618C3.10054 1.38176 3.41848 1.25006 3.75 1.25006H16.25C16.5815 1.25006 16.8995 1.38176 17.1339 1.61618C17.3683 1.8506 17.5 2.16854 17.5 2.50006V10.6251C17.5015 11.8715 17.1634 13.0949 16.5221 14.1637C15.8808 15.2326 14.9605 16.1066 13.86 16.6919L10 18.7501ZM3.75 2.50006V10.6251C3.74931 11.6449 4.02618 12.6456 4.55093 13.5201C5.07568 14.3945 5.82853 15.1096 6.72875 15.5888L10 17.3332L13.2713 15.5894C14.1716 15.1102 14.9245 14.395 15.4492 13.5204C15.974 12.6459 16.2508 11.645 16.25 10.6251V2.50006H3.75Z" fill="#525252"/>
</svg>
