<svg width="20" height="20" viewBox="0 0 20 20" fill="none" xmlns="http://www.w3.org/2000/svg">
<path d="M10.0042 4.06962C9.35956 3.26605 7.77742 2.55426 6.01956 2.55426C3.69278 2.55426 1.81778 3.7514 1.35742 4.87319V16.5668C1.35742 17.2028 1.77599 17.4453 2.22778 17.4453C2.59635 17.4453 2.80528 17.3368 3.03135 17.161C3.50849 16.7507 4.47135 16.1982 6.01992 16.1982C7.55992 16.1982 8.63956 16.7339 9.05814 17.1107C9.27599 17.2864 9.54385 17.4457 10.0042 17.4457C10.456 17.4457 10.7156 17.27 10.9417 17.1107C11.3853 16.7593 12.4399 16.1985 13.9803 16.1985C15.5285 16.1985 16.4996 16.7593 16.9685 17.161C17.1946 17.3368 17.4039 17.4457 17.7721 17.4457C18.2242 17.4457 18.6424 17.2028 18.6424 16.5668V4.87319C18.1821 3.7514 16.3071 2.55426 13.9803 2.55426C12.2224 2.55426 10.6403 3.26605 10.0042 4.06962ZM2.70492 5.27497C2.89778 4.75569 4.11135 3.81819 6.01992 3.81819C7.91992 3.81819 9.15885 4.76426 9.32599 5.27497V15.8635C8.53099 15.2693 7.31706 14.9343 6.01992 14.9343C4.71385 14.9343 3.50028 15.2693 2.70492 15.8971V5.27497ZM17.2949 5.27497V15.8971C16.4996 15.2693 15.286 14.9343 13.9803 14.9343C12.6828 14.9343 11.4689 15.2693 10.6739 15.8635V5.27497C10.841 4.76426 12.0799 3.81819 13.9803 3.81819C15.8885 3.81819 17.1028 4.75569 17.2949 5.27497Z" fill="#525252"/>
</svg>
