<svg width="12" height="16" viewBox="0 0 12 16" fill="none" xmlns="http://www.w3.org/2000/svg">
<path d="M10.375 0.65625H1.625C1.33492 0.65625 1.05672 0.771484 0.851602 0.976602C0.646484 1.18172 0.53125 1.45992 0.53125 1.75V15.5C0.531222 15.5837 0.553599 15.6659 0.596057 15.738C0.638515 15.8101 0.699506 15.8695 0.772696 15.9101C0.845886 15.9507 0.928606 15.9709 1.01226 15.9687C1.09592 15.9666 1.17747 15.942 1.24844 15.8977L5.99922 12.9289L10.7516 15.8977C10.8225 15.942 10.9041 15.9666 10.9877 15.9687C11.0714 15.9709 11.1541 15.9507 11.2273 15.9101C11.3005 15.8695 11.3615 15.8101 11.4039 15.738C11.4464 15.6659 11.4688 15.5837 11.4688 15.5V1.75C11.4688 1.45992 11.3535 1.18172 11.1484 0.976602C10.9433 0.771484 10.6651 0.65625 10.375 0.65625ZM1.625 1.59375H10.375C10.4164 1.59375 10.4562 1.61021 10.4855 1.63951C10.5148 1.66882 10.5312 1.70856 10.5312 1.75V10.9047L6.24766 8.22734C6.17316 8.18078 6.08707 8.15609 5.99922 8.15609C5.91137 8.15609 5.82528 8.18078 5.75078 8.22734L1.46875 10.9039V1.75C1.46875 1.70856 1.48521 1.66882 1.51451 1.63951C1.54382 1.61021 1.58356 1.59375 1.625 1.59375ZM6.24766 11.9773C6.17316 11.9308 6.08707 11.9061 5.99922 11.9061C5.91137 11.9061 5.82528 11.9308 5.75078 11.9773L1.46875 14.6539V12.0102L6 9.17813L10.5312 12.0102V14.6539L6.24766 11.9773Z" fill="#525252"/>
</svg>
