<svg width="20" height="20" viewBox="0 0 20 20" fill="none" xmlns="http://www.w3.org/2000/svg">
<path d="M16.0625 5.81256L11.6875 1.43756C11.5625 1.31256 11.4375 1.25006 11.25 1.25006H5C4.3125 1.25006 3.75 1.81256 3.75 2.50006V17.5001C3.75 18.1876 4.3125 18.7501 5 18.7501H15C15.6875 18.7501 16.25 18.1876 16.25 17.5001V6.25006C16.25 6.06256 16.1875 5.93756 16.0625 5.81256ZM11.25 2.75006L14.75 6.25006H11.25V2.75006ZM15 17.5001H5V2.50006H10V6.25006C10 6.93756 10.5625 7.50006 11.25 7.50006H15V17.5001Z" fill="#525252"/>
<path d="M6.25 13.7501H13.75V15.0001H6.25V13.7501ZM6.25 10.0001H13.75V11.2501H6.25V10.0001Z" fill="#525252"/>
</svg>
