<svg width="15" height="14" viewBox="0 0 15 14" fill="none" xmlns="http://www.w3.org/2000/svg">
<path d="M12.1995 2.27335C11.5883 1.65609 10.8602 1.16666 10.0579 0.833591C9.25554 0.500521 8.39493 0.330471 7.52621 0.333349C3.88621 0.333349 0.919544 3.30002 0.919544 6.94002C0.919544 8.10668 1.22621 9.24002 1.79954 10.24L0.866211 13.6667L4.36621 12.7467C5.33288 13.2733 6.41954 13.5533 7.52621 13.5533C11.1662 13.5533 14.1329 10.5867 14.1329 6.94668C14.1329 5.18002 13.4462 3.52002 12.1995 2.27335ZM7.52621 12.4333C6.53954 12.4333 5.57288 12.1667 4.72621 11.6667L4.52621 11.5467L2.44621 12.0933L2.99954 10.0667L2.86621 9.86002C2.31791 8.98472 2.02683 7.97287 2.02621 6.94002C2.02621 3.91335 4.49288 1.44668 7.51954 1.44668C8.98621 1.44668 10.3662 2.02002 11.3995 3.06002C11.9113 3.56926 12.3168 4.17504 12.5926 4.84223C12.8684 5.50943 13.009 6.22474 13.0062 6.94668C13.0195 9.97335 10.5529 12.4333 7.52621 12.4333ZM10.5395 8.32668C10.3729 8.24668 9.55954 7.84668 9.41288 7.78668C9.25954 7.73335 9.15288 7.70668 9.03955 7.86668C8.92621 8.03335 8.61288 8.40668 8.51954 8.51335C8.42621 8.62668 8.32621 8.64002 8.15954 8.55335C7.99288 8.47335 7.45954 8.29335 6.83288 7.73335C6.33954 7.29335 6.01288 6.75335 5.91288 6.58668C5.81954 6.42002 5.89954 6.33335 5.98621 6.24668C6.05954 6.17335 6.15288 6.05335 6.23288 5.96002C6.31288 5.86668 6.34621 5.79335 6.39954 5.68668C6.45288 5.57335 6.42621 5.48002 6.38621 5.40002C6.34621 5.32002 6.01288 4.50668 5.87954 4.17335C5.74621 3.85335 5.60621 3.89335 5.50621 3.88668H5.18621C5.07288 3.88668 4.89954 3.92668 4.74621 4.09335C4.59954 4.26002 4.17288 4.66002 4.17288 5.47335C4.17288 6.28668 4.76621 7.07335 4.84621 7.18002C4.92621 7.29335 6.01288 8.96002 7.66621 9.67335C8.05954 9.84668 8.36621 9.94668 8.60621 10.02C8.99954 10.1467 9.35954 10.1267 9.64621 10.0867C9.96621 10.04 10.6262 9.68668 10.7595 9.30002C10.8995 8.91335 10.8995 8.58668 10.8529 8.51335C10.8062 8.44002 10.7062 8.40668 10.5395 8.32668Z" fill="white"/>
</svg>
