<svg width="17" height="16" viewBox="0 0 17 16" fill="none" xmlns="http://www.w3.org/2000/svg">
<path d="M14.95 13.793L11.174 10.017C12.0814 8.92765 12.5339 7.53042 12.4373 6.11595C12.3408 4.70148 11.7026 3.37869 10.6556 2.42275C9.60861 1.46682 8.23336 0.951334 6.81597 0.98354C5.39858 1.01575 4.04817 1.59316 3.04566 2.59567C2.04316 3.59817 1.46574 4.94858 1.43354 6.36598C1.40133 7.78337 1.91681 9.15861 2.87275 10.2056C3.82869 11.2526 5.15148 11.8908 6.56595 11.9873C7.98041 12.0839 9.37765 11.6314 10.467 10.724L14.243 14.5L14.95 13.793ZM2.44999 6.5C2.44999 5.60998 2.71391 4.73995 3.20838 3.99993C3.70285 3.25991 4.40565 2.68313 5.22792 2.34254C6.05019 2.00194 6.95499 1.91283 7.8279 2.08646C8.70081 2.2601 9.50264 2.68868 10.132 3.31802C10.7613 3.94735 11.1899 4.74918 11.3635 5.62209C11.5372 6.495 11.448 7.3998 11.1075 8.22207C10.7669 9.04434 10.1901 9.74714 9.45006 10.2416C8.71004 10.7361 7.84001 11 6.94999 11C5.75693 10.9987 4.6131 10.5241 3.76947 9.68052C2.92585 8.83689 2.45132 7.69306 2.44999 6.5Z" fill="#525252"/>
</svg>
