<svg width="10" height="10" viewBox="0 0 10 10" fill="none" xmlns="http://www.w3.org/2000/svg">
<path d="M1 0C0.734784 0 0.48043 0.105357 0.292893 0.292893C0.105357 0.48043 0 0.734784 0 1V7C0 7.26522 0.105357 7.51957 0.292893 7.70711C0.48043 7.89464 0.734784 8 1 8H3V9.5C3 9.63261 3.05268 9.75979 3.14645 9.85355C3.24021 9.94732 3.36739 10 3.5 10H3.75C3.875 10 4 9.95 4.1 9.855L5.95 8H9C9.26522 8 9.51957 7.89464 9.70711 7.70711C9.89464 7.51957 10 7.26522 10 7V1C10 0.734784 9.89464 0.48043 9.70711 0.292893C9.51957 0.105357 9.26522 0 9 0H1ZM1 1H9V7H5.54L4 8.54V7H1V1ZM5.095 1.75C4.65 1.75 4.295 1.84 4.025 2.02C3.75 2.2 3.61 2.5 3.635 2.845H4.62C4.62 2.705 4.67 2.6 4.75 2.53C4.85 2.46 4.96 2.425 5.095 2.425C5.25 2.425 5.385 2.465 5.475 2.555C5.565 2.64 5.61 2.75 5.61 2.9C5.61 3.04 5.57 3.165 5.5 3.27C5.415 3.38 5.31 3.47 5.18 3.54C4.92 3.7 4.75 3.84 4.645 3.96C4.55 4.08 4.5 4.25 4.5 4.5H5.5C5.5 4.36 5.525 4.25 5.57 4.16C5.615 4.075 5.7 4 5.83 3.925C6.06 3.82 6.25 3.68 6.395 3.5C6.54 3.315 6.615 3.12 6.615 2.9C6.615 2.55 6.48 2.27 6.21 2.06C5.94 1.855 5.565 1.75 5.095 1.75ZM4.5 5V6H5.5V5H4.5Z" fill="white"/>
</svg>
