<svg width="19" height="18" viewBox="0 0 19 18" fill="none" xmlns="http://www.w3.org/2000/svg">
<path d="M5.5539 12.846L11.3619 10.962L13.2459 5.154L7.4389 7.039L5.5539 12.846ZM9.3959 10.116C9.08457 10.116 8.82124 10.007 8.6059 9.789C8.3919 9.571 8.2849 9.30667 8.2849 8.996C8.2849 8.68467 8.39357 8.42133 8.6109 8.206C8.8289 7.992 9.09324 7.885 9.4039 7.885C9.71524 7.885 9.97857 7.99367 10.1939 8.211C10.4086 8.429 10.5159 8.69333 10.5159 9.004C10.5159 9.31533 10.4069 9.57867 10.1889 9.794C9.9709 10.0087 9.70657 10.116 9.3959 10.116ZM9.4029 18C8.15824 18 6.98824 17.764 5.8929 17.292C4.79757 16.8193 3.84457 16.178 3.0339 15.368C2.22324 14.558 1.58157 13.606 1.1089 12.512C0.636236 11.418 0.399902 10.2483 0.399902 9.003C0.399902 7.75767 0.636236 6.58767 1.1089 5.493C1.5809 4.39767 2.22124 3.44467 3.0299 2.634C3.83857 1.82333 4.7909 1.18167 5.8869 0.709C6.9829 0.236333 8.1529 0 9.3969 0C10.6409 0 11.8109 0.236333 12.9069 0.709C14.0022 1.181 14.9552 1.82167 15.7659 2.631C16.5766 3.44033 17.2182 4.39267 17.6909 5.488C18.1636 6.58333 18.3999 7.753 18.3999 8.997C18.3999 10.241 18.1639 11.411 17.6919 12.507C17.2199 13.603 16.5786 14.556 15.7679 15.366C14.9572 16.176 14.0052 16.8177 12.9119 17.291C11.8186 17.7643 10.6489 18.0007 9.4029 18ZM9.3999 17C11.6292 17 13.5199 16.224 15.0719 14.672C16.6239 13.12 17.3999 11.2293 17.3999 9C17.3999 6.77067 16.6239 4.88 15.0719 3.328C13.5199 1.776 11.6292 1 9.3999 1C7.17057 1 5.2799 1.776 3.7279 3.328C2.1759 4.88 1.3999 6.77067 1.3999 9C1.3999 11.2293 2.1759 13.12 3.7279 14.672C5.2799 16.224 7.17057 17 9.3999 17Z" fill="#525252"/>
</svg>
