<svg width="20" height="20" viewBox="0 0 20 20" fill="none" xmlns="http://www.w3.org/2000/svg">
<path d="M17.7499 8C17.7499 7.80108 17.6709 7.61032 17.5302 7.46967C17.3896 7.32901 17.1988 7.25 16.9999 7.25C16.801 7.25 16.6102 7.32901 16.4696 7.46967C16.3289 7.61032 16.2499 7.80108 16.2499 8H17.7499ZM3.74991 8C3.74991 7.80108 3.67089 7.61032 3.53024 7.46967C3.38959 7.32901 3.19882 7.25 2.99991 7.25C2.801 7.25 2.61023 7.32901 2.46958 7.46967C2.32893 7.61032 2.24991 7.80108 2.24991 8H3.74991ZM18.4699 10.53C18.5386 10.6037 18.6214 10.6628 18.7134 10.7038C18.8054 10.7448 18.9047 10.7668 19.0054 10.7686C19.1061 10.7704 19.2061 10.7518 19.2995 10.7141C19.3929 10.6764 19.4777 10.6203 19.5489 10.549C19.6202 10.4778 19.6763 10.393 19.714 10.2996C19.7518 10.2062 19.7703 10.1062 19.7685 10.0055C19.7667 9.90477 19.7447 9.80546 19.7037 9.71346C19.6627 9.62146 19.6036 9.53866 19.5299 9.47L18.4699 10.53ZM9.99991 0.999996L10.5299 0.469996C10.3893 0.329546 10.1987 0.250656 9.99991 0.250656C9.80116 0.250656 9.61053 0.329546 9.46991 0.469996L9.99991 0.999996ZM0.46991 9.47C0.396223 9.53866 0.337121 9.62146 0.296129 9.71346C0.255137 9.80546 0.233095 9.90477 0.231318 10.0055C0.229541 10.1062 0.248066 10.2062 0.285787 10.2996C0.323508 10.393 0.379652 10.4778 0.450871 10.549C0.52209 10.6203 0.606924 10.6764 0.700312 10.7141C0.7937 10.7518 0.893729 10.7704 0.994432 10.7686C1.09513 10.7668 1.19445 10.7448 1.28645 10.7038C1.37845 10.6628 1.46125 10.6037 1.52991 10.53L0.46991 9.47ZM4.99991 19.75H14.9999V18.25H4.99991V19.75ZM17.7499 17V8H16.2499V17H17.7499ZM3.74991 17V8H2.24991V17H3.74991ZM19.5299 9.47L10.5299 0.469996L9.46991 1.53L18.4699 10.53L19.5299 9.47ZM9.46991 0.469996L0.46991 9.47L1.52991 10.53L10.5299 1.53L9.46991 0.469996ZM14.9999 19.75C15.7293 19.75 16.4287 19.4603 16.9445 18.9445C17.4602 18.4288 17.7499 17.7293 17.7499 17H16.2499C16.2499 17.69 15.6899 18.25 14.9999 18.25V19.75ZM4.99991 18.25C4.30991 18.25 3.74991 17.69 3.74991 17H2.24991C2.24991 17.7293 2.53964 18.4288 3.05537 18.9445C3.57109 19.4603 4.27056 19.75 4.99991 19.75V18.25Z" fill="#525252"/>
</svg>
