<svg width="25" height="24" viewBox="0 0 25 24" fill="none" xmlns="http://www.w3.org/2000/svg">
<path d="M7.01398 2C5.70998 2.129 4.83198 2.419 4.17598 3.076C3.00098 4.253 3.00098 6.148 3.00098 9.939V13.959C3.00098 17.749 3.00098 19.645 4.17598 20.823C5.35098 22.001 7.24298 22 11.026 22H13.033C16.816 22 18.708 22 19.883 20.823C20.95 19.753 21.049 18.106 21.058 14.977" stroke="#525252" stroke-width="1.5" stroke-linecap="round" stroke-linejoin="round"/>
<path d="M11.026 7.00004L12.029 10.5C12.589 11.61 13.292 11.9 15.039 12C16.428 11.966 17.234 11.802 17.922 11.204C18.391 10.796 18.603 10.181 18.706 9.56904L19.05 7.50004M21.558 5.50004V10.5M9.10096 4.93304C10.688 3.61604 12.102 2.90904 15.035 2.13104C15.3658 2.04368 15.714 2.04541 16.044 2.13604C18.64 2.85004 20.042 3.48404 21.92 4.89404C22 4.95404 22.024 5.06604 21.968 5.14904C21.355 6.05104 19.986 6.78204 16.628 8.08404C15.9285 8.35317 15.1534 8.34889 14.457 8.07204C10.881 6.65204 9.23696 5.89204 9.03696 5.10304C9.03046 5.07156 9.03302 5.03887 9.04435 5.00878C9.05568 4.97869 9.07531 4.95243 9.10096 4.93304Z" stroke="#525252" stroke-width="1.5" stroke-linecap="round" stroke-linejoin="round"/>
</svg>
