<svg width="12" height="15" viewBox="0 0 12 15" fill="none" xmlns="http://www.w3.org/2000/svg">
<path d="M2.00008 14.6666C1.63341 14.6666 1.31964 14.5362 1.05875 14.2753C0.797859 14.0144 0.667192 13.7004 0.666748 13.3333V6.66663C0.666748 6.29996 0.797415 5.98618 1.05875 5.72529C1.32008 5.4644 1.63386 5.33374 2.00008 5.33329H2.66675V3.99996C2.66675 3.07774 2.99186 2.29174 3.64208 1.64196C4.2923 0.992182 5.0783 0.667071 6.00008 0.666626C6.92186 0.666182 7.70808 0.991293 8.35875 1.64196C9.00941 2.29263 9.3343 3.07863 9.33342 3.99996V5.33329H10.0001C10.3667 5.33329 10.6807 5.46396 10.9421 5.72529C11.2034 5.98663 11.3339 6.3004 11.3334 6.66663V13.3333C11.3334 13.7 11.203 14.014 10.9421 14.2753C10.6812 14.5366 10.3672 14.6671 10.0001 14.6666H2.00008ZM6.00008 11.3333C6.36675 11.3333 6.68075 11.2028 6.94208 10.942C7.20341 10.6811 7.33386 10.3671 7.33342 9.99996C7.33297 9.63285 7.20253 9.31907 6.94208 9.05863C6.68164 8.79818 6.36764 8.66752 6.00008 8.66663C5.63253 8.66574 5.31875 8.7964 5.05875 9.05863C4.79875 9.32085 4.66808 9.63463 4.66675 9.99996C4.66541 10.3653 4.79608 10.6793 5.05875 10.942C5.32141 11.2046 5.63519 11.3351 6.00008 11.3333ZM4.00008 5.33329H8.00008V3.99996C8.00008 3.4444 7.80564 2.97218 7.41675 2.58329C7.02786 2.1944 6.55564 1.99996 6.00008 1.99996C5.44453 1.99996 4.9723 2.1944 4.58341 2.58329C4.19453 2.97218 4.00008 3.4444 4.00008 3.99996V5.33329Z" fill="#525252"/>
</svg>
