<svg width="16" height="16" viewBox="0 0 16 16" fill="none" xmlns="http://www.w3.org/2000/svg">
<path fill-rule="evenodd" clip-rule="evenodd" d="M13.6866 3.02006C13.775 2.92528 13.823 2.79991 13.8208 2.67038C13.8185 2.54084 13.766 2.41725 13.6744 2.32565C13.5828 2.23404 13.4592 2.18156 13.3297 2.17928C13.2001 2.17699 13.0748 2.22507 12.98 2.31339L2.31331 12.9801C2.26419 13.0258 2.22479 13.081 2.19746 13.1424C2.17013 13.2037 2.15544 13.2699 2.15425 13.337C2.15307 13.4042 2.16542 13.4709 2.19057 13.5331C2.21571 13.5954 2.25314 13.6519 2.30062 13.6994C2.3481 13.7469 2.40466 13.7843 2.46692 13.8095C2.52917 13.8346 2.59586 13.847 2.663 13.8458C2.73013 13.8446 2.79634 13.8299 2.85767 13.8026C2.91901 13.7753 2.97421 13.7359 3.01998 13.6867L4.91798 11.7887C5.82931 12.2181 6.87798 12.5001 7.99998 12.5001C9.78931 12.5001 11.3933 11.7821 12.5466 10.8967C13.1246 10.4534 13.602 9.95873 13.9393 9.47273C14.2673 9.00006 14.5 8.48206 14.5 8.00006C14.5 7.51806 14.2666 7.00006 13.9393 6.52739C13.602 6.04139 13.1246 5.54739 12.5473 5.10339C12.3722 4.96873 12.1873 4.83917 11.9926 4.71473L13.6866 3.02006ZM11.2666 5.44073L10.086 6.62139C10.4043 7.10215 10.5466 7.67815 10.4889 8.25184C10.4312 8.82552 10.177 9.36162 9.76925 9.76933C9.36154 10.177 8.82544 10.4313 8.25176 10.489C7.67807 10.5467 7.10207 10.4044 6.62131 10.0861L5.67665 11.0301C6.41366 11.3347 7.20252 11.4943 7.99998 11.5001C9.52465 11.5001 10.92 10.8847 11.938 10.1034C12.446 9.71339 12.8473 9.29139 13.118 8.90273C13.3973 8.50006 13.5 8.18473 13.5 8.00006C13.5 7.81539 13.3973 7.50006 13.118 7.09739C12.8473 6.70873 12.446 6.28673 11.938 5.89673C11.7291 5.73628 11.5058 5.58428 11.2666 5.44073ZM7.35265 9.35406C7.63255 9.48774 7.94702 9.53136 8.25275 9.4789C8.55847 9.42645 8.84042 9.28051 9.05975 9.06117C9.27909 8.84183 9.42504 8.55988 9.47749 8.25416C9.52995 7.94844 9.48633 7.63397 9.35265 7.35406L7.35265 9.35406Z" fill="#525252"/>
<path d="M8 3.5C8.688 3.5 9.34933 3.60667 9.96733 3.78733C9.99439 3.79541 10.0189 3.81041 10.0383 3.83086C10.0578 3.85131 10.0716 3.8765 10.0783 3.90392C10.0851 3.93134 10.0845 3.96004 10.0767 3.98719C10.069 4.01433 10.0542 4.03897 10.034 4.05867L9.48467 4.60867C9.46443 4.62912 9.43924 4.64398 9.41155 4.65181C9.38386 4.65963 9.35462 4.66016 9.32667 4.65333C8.89153 4.55301 8.44655 4.50158 8 4.5C6.47533 4.5 5.08 5.11533 4.062 5.89667C3.554 6.28667 3.15267 6.70867 2.882 7.09733C2.60267 7.5 2.5 7.81533 2.5 8C2.5 8.18467 2.60267 8.5 2.882 8.90267C3.118 9.24267 3.454 9.60733 3.874 9.954C3.95133 10.0173 3.95867 10.134 3.88733 10.2053L3.41533 10.678C3.38643 10.7073 3.34754 10.7247 3.30642 10.7267C3.26529 10.7287 3.22492 10.7151 3.19333 10.6887C2.76401 10.3348 2.38318 9.92599 2.06067 9.47267C1.73333 9 1.5 8.482 1.5 8C1.5 7.518 1.73333 7 2.06067 6.52733C2.398 6.04133 2.87533 5.54733 3.45267 5.10333C4.60667 4.218 6.21067 3.5 8 3.5Z" fill="#525252"/>
<path d="M7.99994 5.5C8.07905 5.5 8.15705 5.50356 8.23394 5.51067C8.36528 5.52333 8.41261 5.68 8.31994 5.77333L7.51128 6.58133C7.29604 6.65596 7.10052 6.77841 6.93944 6.9395C6.77836 7.10058 6.6559 7.2961 6.58128 7.51133L5.77328 8.32C5.67994 8.41333 5.52328 8.36533 5.51061 8.234C5.47803 7.88747 5.51817 7.53795 5.62846 7.20783C5.73875 6.8777 5.91676 6.57424 6.15109 6.31688C6.38542 6.05952 6.67091 5.85393 6.98928 5.71326C7.30765 5.57259 7.65188 5.49996 7.99994 5.5Z" fill="#525252"/>
</svg>
