<svg width="12" height="12" viewBox="0 0 12 12" fill="none" xmlns="http://www.w3.org/2000/svg">
<path d="M5.99996 0.666748C6.7072 0.666748 7.38548 0.9477 7.88558 1.4478C8.38567 1.94789 8.66663 2.62617 8.66663 3.33341C8.66663 4.04066 8.38567 4.71894 7.88558 5.21903C7.38548 5.71913 6.7072 6.00008 5.99996 6.00008C5.29272 6.00008 4.61444 5.71913 4.11434 5.21903C3.61424 4.71894 3.33329 4.04066 3.33329 3.33341C3.33329 2.62617 3.61424 1.94789 4.11434 1.4478C4.61444 0.9477 5.29272 0.666748 5.99996 0.666748ZM5.99996 7.33342C8.94663 7.33342 11.3333 8.52675 11.3333 10.0001V11.3334H0.666626V10.0001C0.666626 8.52675 3.05329 7.33342 5.99996 7.33342Z" fill="#525252"/>
</svg>
