<svg width="10" height="13" viewBox="0 0 10 13" fill="none" xmlns="http://www.w3.org/2000/svg">
<path d="M8.5 0H1.5C1.23478 0 0.98043 0.105357 0.792893 0.292893C0.605357 0.48043 0.5 0.734784 0.5 1V12C0.500044 12.0892 0.523967 12.1768 0.569286 12.2537C0.614605 12.3306 0.679668 12.3939 0.757725 12.4371C0.835781 12.4804 0.923986 12.5019 1.01319 12.4996C1.10239 12.4972 1.18933 12.471 1.265 12.4237L5 10.0894L8.73563 12.4237C8.81128 12.4709 8.89816 12.4969 8.98727 12.4992C9.07638 12.5015 9.16447 12.4799 9.24243 12.4367C9.32038 12.3934 9.38537 12.3302 9.43066 12.2534C9.47595 12.1766 9.49989 12.0891 9.5 12V1C9.5 0.734784 9.39464 0.48043 9.20711 0.292893C9.01957 0.105357 8.76522 0 8.5 0ZM5.26437 9.07625C5.18491 9.02658 5.09308 9.00025 4.99937 9.00025C4.90566 9.00025 4.81384 9.02658 4.73438 9.07625L1.5 11.0981V9.27687L5 7.08937L8.5 9.27687V11.0981L5.26437 9.07625Z" fill="#1C3B5A"/>
</svg>
