<svg width="14" height="14" viewBox="0 0 14 14" fill="none" xmlns="http://www.w3.org/2000/svg">
<path fill-rule="evenodd" clip-rule="evenodd" d="M7.35008 6.71007L9.61983 8.97982L9.12516 9.47507L6.65008 6.99999V3.49999H7.35008V6.71007ZM7.00008 12.8333C3.77833 12.8333 1.16675 10.2217 1.16675 6.99999C1.16675 3.77824 3.77833 1.16666 7.00008 1.16666C10.2218 1.16666 12.8334 3.77824 12.8334 6.99999C12.8334 10.2217 10.2218 12.8333 7.00008 12.8333ZM7.00008 12.1333C8.36153 12.1333 9.66721 11.5925 10.6299 10.6298C11.5926 9.66712 12.1334 8.36143 12.1334 6.99999C12.1334 5.63855 11.5926 4.33286 10.6299 3.37017C9.66721 2.40749 8.36153 1.86666 7.00008 1.86666C5.63864 1.86666 4.33295 2.40749 3.37027 3.37017C2.40758 4.33286 1.86675 5.63855 1.86675 6.99999C1.86675 8.36143 2.40758 9.66712 3.37027 10.6298C4.33295 11.5925 5.63864 12.1333 7.00008 12.1333Z" fill="#525252"/>
</svg>
